<?xml version="1.0" encoding="UTF-8" standalone="no"?>
<!DOCTYPE svg PUBLIC "-//W3C//DTD SVG 1.1//EN"
 "http://www.w3.org/Graphics/SVG/1.1/DTD/svg11.dtd">
<!-- Generated by graphviz version 2.40.1 (20161225.0304)
 -->
<!-- Title: controllers_diagram Pages: 1 -->
<svg width="712pt" height="741pt"
 viewBox="0.00 0.00 711.87 741.00" xmlns="http://www.w3.org/2000/svg" xmlns:xlink="http://www.w3.org/1999/xlink">
<g id="graph0" class="graph" transform="scale(1 1) rotate(0) translate(4 737)">
<title>controllers_diagram</title>
<polygon fill="transparent" stroke="transparent" points="-4,4 -4,-737 707.8691,-737 707.8691,4 -4,4"/>
<!-- _diagram_info -->
<g id="node1" class="node">
<title>_diagram_info</title>
<text text-anchor="start" x="40" y="-186.6" font-family="Times,serif" font-size="13.00" fill="#000000">Controllers diagram</text>
<text text-anchor="start" x="40" y="-173.6" font-family="Times,serif" font-size="13.00" fill="#000000">Date: Mar 18 2019 &#45; 02:14</text>
<text text-anchor="start" x="40" y="-160.6" font-family="Times,serif" font-size="13.00" fill="#000000">Migration version: 20190315141329</text>
<text text-anchor="start" x="40" y="-147.6" font-family="Times,serif" font-size="13.00" fill="#000000">Generated by RailRoady 1.5.3</text>
<text text-anchor="start" x="40" y="-134.6" font-family="Times,serif" font-size="13.00" fill="#000000">http://railroady.prestonlee.com</text>
</g>
<!-- ApplicationController -->
<g id="node2" class="node">
<title>ApplicationController</title>
<path fill="none" stroke="#000000" d="M364,-128.5C364,-128.5 537.9316,-128.5 537.9316,-128.5 543.9316,-128.5 549.9316,-134.5 549.9316,-140.5 549.9316,-140.5 549.9316,-206.5 549.9316,-206.5 549.9316,-212.5 543.9316,-218.5 537.9316,-218.5 537.9316,-218.5 364,-218.5 364,-218.5 358,-218.5 352,-212.5 352,-206.5 352,-206.5 352,-140.5 352,-140.5 352,-134.5 358,-128.5 364,-128.5"/>
<text text-anchor="middle" x="450.9658" y="-203.3" font-family="Times,serif" font-size="14.00" fill="#000000">ApplicationController</text>
<polyline fill="none" stroke="#000000" points="352,-196.5 549.9316,-196.5 "/>
<polyline fill="none" stroke="#000000" points="352,-172.5 549.9316,-172.5 "/>
<text text-anchor="start" x="360" y="-157.3" font-family="Times,serif" font-size="14.00" fill="#000000">configure_permitted_parameters</text>
<polyline fill="none" stroke="#000000" points="352,-150.5 549.9316,-150.5 "/>
<text text-anchor="start" x="360" y="-135.3" font-family="Times,serif" font-size="14.00" fill="#000000">_layout</text>
</g>
<!-- CategoriesController -->
<g id="node3" class="node">
<title>CategoriesController</title>
<path fill="none" stroke="#000000" d="M44,-336.5C44,-336.5 153.4141,-336.5 153.4141,-336.5 159.4141,-336.5 165.4141,-342.5 165.4141,-348.5 165.4141,-348.5 165.4141,-442.5 165.4141,-442.5 165.4141,-448.5 159.4141,-454.5 153.4141,-454.5 153.4141,-454.5 44,-454.5 44,-454.5 38,-454.5 32,-448.5 32,-442.5 32,-442.5 32,-348.5 32,-348.5 32,-342.5 38,-336.5 44,-336.5"/>
<text text-anchor="middle" x="98.707" y="-439.3" font-family="Times,serif" font-size="14.00" fill="#000000">CategoriesController</text>
<polyline fill="none" stroke="#000000" points="32,-432.5 165.4141,-432.5 "/>
<text text-anchor="start" x="40" y="-417.3" font-family="Times,serif" font-size="14.00" fill="#000000">search</text>
<text text-anchor="start" x="40" y="-403.3" font-family="Times,serif" font-size="14.00" fill="#000000">show</text>
<polyline fill="none" stroke="#000000" points="32,-396.5 165.4141,-396.5 "/>
<polyline fill="none" stroke="#000000" points="32,-372.5 165.4141,-372.5 "/>
<text text-anchor="start" x="40" y="-357.3" font-family="Times,serif" font-size="14.00" fill="#000000">_layout</text>
<text text-anchor="start" x="40" y="-343.3" font-family="Times,serif" font-size="14.00" fill="#000000">set_category</text>
</g>
<!-- LocationsController -->
<g id="node4" class="node">
<title>LocationsController</title>
<path fill="none" stroke="#000000" d="M268,-.5C268,-.5 372.752,-.5 372.752,-.5 378.752,-.5 384.752,-6.5 384.752,-12.5 384.752,-12.5 384.752,-78.5 384.752,-78.5 384.752,-84.5 378.752,-90.5 372.752,-90.5 372.752,-90.5 268,-90.5 268,-90.5 262,-90.5 256,-84.5 256,-78.5 256,-78.5 256,-12.5 256,-12.5 256,-6.5 262,-.5 268,-.5"/>
<text text-anchor="middle" x="320.376" y="-75.3" font-family="Times,serif" font-size="14.00" fill="#000000">LocationsController</text>
<polyline fill="none" stroke="#000000" points="256,-68.5 384.752,-68.5 "/>
<text text-anchor="start" x="264" y="-53.3" font-family="Times,serif" font-size="14.00" fill="#000000">find_address</text>
<polyline fill="none" stroke="#000000" points="256,-46.5 384.752,-46.5 "/>
<polyline fill="none" stroke="#000000" points="256,-22.5 384.752,-22.5 "/>
<text text-anchor="start" x="264" y="-7.3" font-family="Times,serif" font-size="14.00" fill="#000000">_layout</text>
</g>
<!-- ShopsController -->
<g id="node5" class="node">
<title>ShopsController</title>
<path fill="none" stroke="#000000" d="M364,-384.5C364,-384.5 447.7793,-384.5 447.7793,-384.5 453.7793,-384.5 459.7793,-390.5 459.7793,-396.5 459.7793,-396.5 459.7793,-588.5 459.7793,-588.5 459.7793,-594.5 453.7793,-600.5 447.7793,-600.5 447.7793,-600.5 364,-600.5 364,-600.5 358,-600.5 352,-594.5 352,-588.5 352,-588.5 352,-396.5 352,-396.5 352,-390.5 358,-384.5 364,-384.5"/>
<text text-anchor="middle" x="405.8896" y="-585.3" font-family="Times,serif" font-size="14.00" fill="#000000">ShopsController</text>
<polyline fill="none" stroke="#000000" points="352,-578.5 459.7793,-578.5 "/>
<text text-anchor="start" x="360" y="-563.3" font-family="Times,serif" font-size="14.00" fill="#000000">update</text>
<text text-anchor="start" x="360" y="-549.3" font-family="Times,serif" font-size="14.00" fill="#000000">destroy</text>
<text text-anchor="start" x="360" y="-535.3" font-family="Times,serif" font-size="14.00" fill="#000000">edit</text>
<text text-anchor="start" x="360" y="-521.3" font-family="Times,serif" font-size="14.00" fill="#000000">index</text>
<text text-anchor="start" x="360" y="-507.3" font-family="Times,serif" font-size="14.00" fill="#000000">new</text>
<text text-anchor="start" x="360" y="-493.3" font-family="Times,serif" font-size="14.00" fill="#000000">search</text>
<text text-anchor="start" x="360" y="-479.3" font-family="Times,serif" font-size="14.00" fill="#000000">show</text>
<text text-anchor="start" x="360" y="-465.3" font-family="Times,serif" font-size="14.00" fill="#000000">create</text>
<polyline fill="none" stroke="#000000" points="352,-458.5 459.7793,-458.5 "/>
<polyline fill="none" stroke="#000000" points="352,-434.5 459.7793,-434.5 "/>
<text text-anchor="start" x="360" y="-419.3" font-family="Times,serif" font-size="14.00" fill="#000000">_layout</text>
<text text-anchor="start" x="360" y="-405.3" font-family="Times,serif" font-size="14.00" fill="#000000">set_shop</text>
<text text-anchor="start" x="360" y="-391.3" font-family="Times,serif" font-size="14.00" fill="#000000">shop_params</text>
</g>
<!-- OrdersController -->
<g id="node6" class="node">
<title>OrdersController</title>
<path fill="none" stroke="#000000" d="M220,-496.5C220,-496.5 307.6416,-496.5 307.6416,-496.5 313.6416,-496.5 319.6416,-502.5 319.6416,-508.5 319.6416,-508.5 319.6416,-700.5 319.6416,-700.5 319.6416,-706.5 313.6416,-712.5 307.6416,-712.5 307.6416,-712.5 220,-712.5 220,-712.5 214,-712.5 208,-706.5 208,-700.5 208,-700.5 208,-508.5 208,-508.5 208,-502.5 214,-496.5 220,-496.5"/>
<text text-anchor="middle" x="263.8208" y="-697.3" font-family="Times,serif" font-size="14.00" fill="#000000">OrdersController</text>
<polyline fill="none" stroke="#000000" points="208,-690.5 319.6416,-690.5 "/>
<text text-anchor="start" x="216" y="-675.3" font-family="Times,serif" font-size="14.00" fill="#000000">user</text>
<text text-anchor="start" x="216" y="-661.3" font-family="Times,serif" font-size="14.00" fill="#000000">cart</text>
<text text-anchor="start" x="216" y="-647.3" font-family="Times,serif" font-size="14.00" fill="#000000">create</text>
<text text-anchor="start" x="216" y="-633.3" font-family="Times,serif" font-size="14.00" fill="#000000">dashboard</text>
<text text-anchor="start" x="216" y="-619.3" font-family="Times,serif" font-size="14.00" fill="#000000">destroy</text>
<text text-anchor="start" x="216" y="-605.3" font-family="Times,serif" font-size="14.00" fill="#000000">dispached</text>
<text text-anchor="start" x="216" y="-591.3" font-family="Times,serif" font-size="14.00" fill="#000000">empty_cart</text>
<text text-anchor="start" x="216" y="-577.3" font-family="Times,serif" font-size="14.00" fill="#000000">index</text>
<text text-anchor="start" x="216" y="-563.3" font-family="Times,serif" font-size="14.00" fill="#000000">less_item</text>
<text text-anchor="start" x="216" y="-549.3" font-family="Times,serif" font-size="14.00" fill="#000000">add_item</text>
<polyline fill="none" stroke="#000000" points="208,-542.5 319.6416,-542.5 "/>
<polyline fill="none" stroke="#000000" points="208,-518.5 319.6416,-518.5 "/>
<text text-anchor="start" x="216" y="-503.3" font-family="Times,serif" font-size="14.00" fill="#000000">_layout</text>
</g>
<!-- ProductsController -->
<g id="node7" class="node">
<title>ProductsController</title>
<path fill="none" stroke="#000000" d="M204,-240.5C204,-240.5 304.8213,-240.5 304.8213,-240.5 310.8213,-240.5 316.8213,-246.5 316.8213,-252.5 316.8213,-252.5 316.8213,-444.5 316.8213,-444.5 316.8213,-450.5 310.8213,-456.5 304.8213,-456.5 304.8213,-456.5 204,-456.5 204,-456.5 198,-456.5 192,-450.5 192,-444.5 192,-444.5 192,-252.5 192,-252.5 192,-246.5 198,-240.5 204,-240.5"/>
<text text-anchor="middle" x="254.4106" y="-441.3" font-family="Times,serif" font-size="14.00" fill="#000000">ProductsController</text>
<polyline fill="none" stroke="#000000" points="192,-434.5 316.8213,-434.5 "/>
<text text-anchor="start" x="200" y="-419.3" font-family="Times,serif" font-size="14.00" fill="#000000">update</text>
<text text-anchor="start" x="200" y="-405.3" font-family="Times,serif" font-size="14.00" fill="#000000">destroy</text>
<text text-anchor="start" x="200" y="-391.3" font-family="Times,serif" font-size="14.00" fill="#000000">edit</text>
<text text-anchor="start" x="200" y="-377.3" font-family="Times,serif" font-size="14.00" fill="#000000">new</text>
<text text-anchor="start" x="200" y="-363.3" font-family="Times,serif" font-size="14.00" fill="#000000">search</text>
<text text-anchor="start" x="200" y="-349.3" font-family="Times,serif" font-size="14.00" fill="#000000">search_range_price</text>
<text text-anchor="start" x="200" y="-335.3" font-family="Times,serif" font-size="14.00" fill="#000000">show</text>
<text text-anchor="start" x="200" y="-321.3" font-family="Times,serif" font-size="14.00" fill="#000000">create</text>
<polyline fill="none" stroke="#000000" points="192,-314.5 316.8213,-314.5 "/>
<polyline fill="none" stroke="#000000" points="192,-290.5 316.8213,-290.5 "/>
<text text-anchor="start" x="200" y="-275.3" font-family="Times,serif" font-size="14.00" fill="#000000">_layout</text>
<text text-anchor="start" x="200" y="-261.3" font-family="Times,serif" font-size="14.00" fill="#000000">product_params</text>
<text text-anchor="start" x="200" y="-247.3" font-family="Times,serif" font-size="14.00" fill="#000000">set_product</text>
</g>
<!-- Users::OmniauthCallbacksController -->
<g id="node8" class="node">
<title>Users::OmniauthCallbacksController</title>
<path fill="none" stroke="#000000" d="M364,-256.5C364,-256.5 564.4072,-256.5 564.4072,-256.5 570.4072,-256.5 576.4072,-262.5 576.4072,-268.5 576.4072,-268.5 576.4072,-334.5 576.4072,-334.5 576.4072,-340.5 570.4072,-346.5 564.4072,-346.5 564.4072,-346.5 364,-346.5 364,-346.5 358,-346.5 352,-340.5 352,-334.5 352,-334.5 352,-268.5 352,-268.5 352,-262.5 358,-256.5 364,-256.5"/>
<text text-anchor="middle" x="464.2036" y="-331.3" font-family="Times,serif" font-size="14.00" fill="#000000">Users::OmniauthCallbacksController</text>
<polyline fill="none" stroke="#000000" points="352,-324.5 576.4072,-324.5 "/>
<text text-anchor="start" x="360" y="-309.3" font-family="Times,serif" font-size="14.00" fill="#000000">facebook</text>
<polyline fill="none" stroke="#000000" points="352,-302.5 576.4072,-302.5 "/>
<polyline fill="none" stroke="#000000" points="352,-278.5 576.4072,-278.5 "/>
<text text-anchor="start" x="360" y="-263.3" font-family="Times,serif" font-size="14.00" fill="#000000">_layout</text>
</g>
<!-- Users::PasswordsController -->
<g id="node9" class="node">
<title>Users::PasswordsController</title>
<path fill="none" stroke="#000000" d="M12,-608.5C12,-608.5 160.3242,-608.5 160.3242,-608.5 166.3242,-608.5 172.3242,-614.5 172.3242,-620.5 172.3242,-620.5 172.3242,-688.5 172.3242,-688.5 172.3242,-694.5 166.3242,-700.5 160.3242,-700.5 160.3242,-700.5 12,-700.5 12,-700.5 6,-700.5 0,-694.5 0,-688.5 0,-688.5 0,-620.5 0,-620.5 0,-614.5 6,-608.5 12,-608.5"/>
<text text-anchor="middle" x="86.1621" y="-685.3" font-family="Times,serif" font-size="14.00" fill="#000000">Users::PasswordsController</text>
<polyline fill="none" stroke="#000000" points="0,-678.5 172.3242,-678.5 "/>
<polyline fill="none" stroke="#000000" points="0,-654.5 172.3242,-654.5 "/>
<polyline fill="none" stroke="#000000" points="0,-630.5 172.3242,-630.5 "/>
<text text-anchor="start" x="8" y="-615.3" font-family="Times,serif" font-size="14.00" fill="#000000">_layout</text>
</g>
<!-- Users::SessionsController -->
<g id="node10" class="node">
<title>Users::SessionsController</title>
<path fill="none" stroke="#000000" d="M12,-480.5C12,-480.5 149.4414,-480.5 149.4414,-480.5 155.4414,-480.5 161.4414,-486.5 161.4414,-492.5 161.4414,-492.5 161.4414,-560.5 161.4414,-560.5 161.4414,-566.5 155.4414,-572.5 149.4414,-572.5 149.4414,-572.5 12,-572.5 12,-572.5 6,-572.5 0,-566.5 0,-560.5 0,-560.5 0,-492.5 0,-492.5 0,-486.5 6,-480.5 12,-480.5"/>
<text text-anchor="middle" x="80.7207" y="-557.3" font-family="Times,serif" font-size="14.00" fill="#000000">Users::SessionsController</text>
<polyline fill="none" stroke="#000000" points="0,-550.5 161.4414,-550.5 "/>
<polyline fill="none" stroke="#000000" points="0,-526.5 161.4414,-526.5 "/>
<polyline fill="none" stroke="#000000" points="0,-502.5 161.4414,-502.5 "/>
<text text-anchor="start" x="8" y="-487.3" font-family="Times,serif" font-size="14.00" fill="#000000">_layout</text>
</g>
<!-- Users::UnlocksController -->
<g id="node11" class="node">
<title>Users::UnlocksController</title>
<path fill="none" stroke="#000000" d="M556,-640.5C556,-640.5 691.8691,-640.5 691.8691,-640.5 697.8691,-640.5 703.8691,-646.5 703.8691,-652.5 703.8691,-652.5 703.8691,-720.5 703.8691,-720.5 703.8691,-726.5 697.8691,-732.5 691.8691,-732.5 691.8691,-732.5 556,-732.5 556,-732.5 550,-732.5 544,-726.5 544,-720.5 544,-720.5 544,-652.5 544,-652.5 544,-646.5 550,-640.5 556,-640.5"/>
<text text-anchor="middle" x="623.9346" y="-717.3" font-family="Times,serif" font-size="14.00" fill="#000000">Users::UnlocksController</text>
<polyline fill="none" stroke="#000000" points="544,-710.5 703.8691,-710.5 "/>
<polyline fill="none" stroke="#000000" points="544,-686.5 703.8691,-686.5 "/>
<polyline fill="none" stroke="#000000" points="544,-662.5 703.8691,-662.5 "/>
<text text-anchor="start" x="552" y="-647.3" font-family="Times,serif" font-size="14.00" fill="#000000">_layout</text>
</g>
<!-- Users::ConfirmationsController -->
<g id="node12" class="node">
<title>Users::ConfirmationsController</title>
<path fill="none" stroke="#000000" d="M508,-384.5C508,-384.5 677.3242,-384.5 677.3242,-384.5 683.3242,-384.5 689.3242,-390.5 689.3242,-396.5 689.3242,-396.5 689.3242,-464.5 689.3242,-464.5 689.3242,-470.5 683.3242,-476.5 677.3242,-476.5 677.3242,-476.5 508,-476.5 508,-476.5 502,-476.5 496,-470.5 496,-464.5 496,-464.5 496,-396.5 496,-396.5 496,-390.5 502,-384.5 508,-384.5"/>
<text text-anchor="middle" x="592.6621" y="-461.3" font-family="Times,serif" font-size="14.00" fill="#000000">Users::ConfirmationsController</text>
<polyline fill="none" stroke="#000000" points="496,-454.5 689.3242,-454.5 "/>
<polyline fill="none" stroke="#000000" points="496,-430.5 689.3242,-430.5 "/>
<polyline fill="none" stroke="#000000" points="496,-406.5 689.3242,-406.5 "/>
<text text-anchor="start" x="504" y="-391.3" font-family="Times,serif" font-size="14.00" fill="#000000">_layout</text>
</g>
<!-- Users::RegistrationsController -->
<g id="node13" class="node">
<title>Users::RegistrationsController</title>
<path fill="none" stroke="#000000" d="M508,-512.5C508,-512.5 671.0898,-512.5 671.0898,-512.5 677.0898,-512.5 683.0898,-518.5 683.0898,-524.5 683.0898,-524.5 683.0898,-592.5 683.0898,-592.5 683.0898,-598.5 677.0898,-604.5 671.0898,-604.5 671.0898,-604.5 508,-604.5 508,-604.5 502,-604.5 496,-598.5 496,-592.5 496,-592.5 496,-524.5 496,-524.5 496,-518.5 502,-512.5 508,-512.5"/>
<text text-anchor="middle" x="589.5449" y="-589.3" font-family="Times,serif" font-size="14.00" fill="#000000">Users::RegistrationsController</text>
<polyline fill="none" stroke="#000000" points="496,-582.5 683.0898,-582.5 "/>
<polyline fill="none" stroke="#000000" points="496,-558.5 683.0898,-558.5 "/>
<polyline fill="none" stroke="#000000" points="496,-534.5 683.0898,-534.5 "/>
<text text-anchor="start" x="504" y="-519.3" font-family="Times,serif" font-size="14.00" fill="#000000">_layout</text>
</g>
<!-- PayoutBatchesController -->
<g id="node14" class="node">
<title>PayoutBatchesController</title>
<path fill="none" stroke="#000000" d="M364,-640.5C364,-640.5 496.752,-640.5 496.752,-640.5 502.752,-640.5 508.752,-646.5 508.752,-652.5 508.752,-652.5 508.752,-718.5 508.752,-718.5 508.752,-724.5 502.752,-730.5 496.752,-730.5 496.752,-730.5 364,-730.5 364,-730.5 358,-730.5 352,-724.5 352,-718.5 352,-718.5 352,-652.5 352,-652.5 352,-646.5 358,-640.5 364,-640.5"/>
<text text-anchor="middle" x="430.376" y="-715.3" font-family="Times,serif" font-size="14.00" fill="#000000">PayoutBatchesController</text>
<polyline fill="none" stroke="#000000" points="352,-708.5 508.752,-708.5 "/>
<text text-anchor="start" x="360" y="-693.3" font-family="Times,serif" font-size="14.00" fill="#000000">create</text>
<polyline fill="none" stroke="#000000" points="352,-686.5 508.752,-686.5 "/>
<polyline fill="none" stroke="#000000" points="352,-662.5 508.752,-662.5 "/>
<text text-anchor="start" x="360" y="-647.3" font-family="Times,serif" font-size="14.00" fill="#000000">_layout</text>
</g>
<!-- BillingsController -->
<g id="node15" class="node">
<title>BillingsController</title>
<path fill="none" stroke="#000000" d="M588,-32.5C588,-32.5 681.8896,-32.5 681.8896,-32.5 687.8896,-32.5 693.8896,-38.5 693.8896,-44.5 693.8896,-44.5 693.8896,-124.5 693.8896,-124.5 693.8896,-130.5 687.8896,-136.5 681.8896,-136.5 681.8896,-136.5 588,-136.5 588,-136.5 582,-136.5 576,-130.5 576,-124.5 576,-124.5 576,-44.5 576,-44.5 576,-38.5 582,-32.5 588,-32.5"/>
<text text-anchor="middle" x="634.9448" y="-121.3" font-family="Times,serif" font-size="14.00" fill="#000000">BillingsController</text>
<polyline fill="none" stroke="#000000" points="576,-114.5 693.8896,-114.5 "/>
<text text-anchor="start" x="584" y="-99.3" font-family="Times,serif" font-size="14.00" fill="#000000">execute</text>
<text text-anchor="start" x="584" y="-85.3" font-family="Times,serif" font-size="14.00" fill="#000000">pre_pay</text>
<polyline fill="none" stroke="#000000" points="576,-78.5 693.8896,-78.5 "/>
<polyline fill="none" stroke="#000000" points="576,-54.5 693.8896,-54.5 "/>
<text text-anchor="start" x="584" y="-39.3" font-family="Times,serif" font-size="14.00" fill="#000000">_layout</text>
</g>
</g>
</svg>
