<?xml version="1.0" encoding="UTF-8" standalone="no"?>
<!DOCTYPE svg PUBLIC "-//W3C//DTD SVG 1.1//EN"
 "http://www.w3.org/Graphics/SVG/1.1/DTD/svg11.dtd">
<!-- Generated by graphviz version 2.40.1 (20161225.0304)
 -->
<!-- Title: models_diagram Pages: 1 -->
<svg width="825pt" height="225pt"
 viewBox="0.00 0.00 825.08 225.00" xmlns="http://www.w3.org/2000/svg" xmlns:xlink="http://www.w3.org/1999/xlink">
<g id="graph0" class="graph" transform="scale(1 1) rotate(0) translate(4 221)">
<title>models_diagram</title>
<polygon fill="transparent" stroke="transparent" points="-4,4 -4,-221 821.0835,-221 821.0835,4 -4,4"/>
<!-- _diagram_info -->
<g id="node1" class="node">
<title>_diagram_info</title>
<text text-anchor="start" x="8" y="-202.6" font-family="Times,serif" font-size="13.00" fill="#000000">Models diagram</text>
<text text-anchor="start" x="8" y="-189.6" font-family="Times,serif" font-size="13.00" fill="#000000">Date: Mar 18 2019 &#45; 02:14</text>
<text text-anchor="start" x="8" y="-176.6" font-family="Times,serif" font-size="13.00" fill="#000000">Migration version: 20190315141329</text>
<text text-anchor="start" x="8" y="-163.6" font-family="Times,serif" font-size="13.00" fill="#000000">Generated by RailRoady 1.5.3</text>
<text text-anchor="start" x="8" y="-150.6" font-family="Times,serif" font-size="13.00" fill="#000000">http://railroady.prestonlee.com</text>
</g>
<!-- Shop -->
<g id="node2" class="node">
<title>Shop</title>
<ellipse fill="none" stroke="#000000" cx="196.6877" cy="-90" rx="28.0822" ry="18"/>
<text text-anchor="middle" x="196.6877" y="-85.8" font-family="Times,serif" font-size="14.00" fill="#000000">Shop</text>
</g>
<!-- Product -->
<g id="node4" class="node">
<title>Product</title>
<ellipse fill="none" stroke="#000000" cx="224.6877" cy="-18" rx="37.7352" ry="18"/>
<text text-anchor="middle" x="224.6877" y="-13.8" font-family="Times,serif" font-size="14.00" fill="#000000">Product</text>
</g>
<!-- Shop&#45;&gt;Product -->
<g id="edge1" class="edge">
<title>Shop&#45;&gt;Product</title>
<path fill="none" stroke="#54df84" d="M206.5849,-64.5502C209.0061,-58.3241 211.607,-51.6362 214.0609,-45.3263"/>
<ellipse fill="none" stroke="#54df84" cx="205.0589" cy="-68.4742" rx="4" ry="4"/>
<polygon fill="#54df84" stroke="#54df84" points="214.1245,-45.1626 221.943,-37.4736 215.9367,-40.5026 217.749,-35.8425 217.749,-35.8425 217.749,-35.8425 215.9367,-40.5026 213.555,-34.2115 214.1245,-45.1626 214.1245,-45.1626"/>
</g>
<!-- Category -->
<g id="node3" class="node">
<title>Category</title>
<ellipse fill="none" stroke="#000000" cx="323.6877" cy="-90" rx="42.5456" ry="18"/>
<text text-anchor="middle" x="323.6877" y="-85.8" font-family="Times,serif" font-size="14.00" fill="#000000">Category</text>
</g>
<!-- Category&#45;&gt;Product -->
<g id="edge3" class="edge">
<title>Category&#45;&gt;Product</title>
<path fill="none" stroke="#45815c" d="M293.8935,-68.3315C281.1917,-59.0938 266.421,-48.3514 253.7953,-39.1691"/>
<polygon fill="#45815c" stroke="#45815c" points="294.1188,-68.4953 299.5594,-78.0164 298.1625,-71.4362 302.2062,-74.3771 302.2062,-74.3771 302.2062,-74.3771 298.1625,-71.4362 304.853,-70.7378 294.1188,-68.4953 294.1188,-68.4953"/>
<polygon fill="#45815c" stroke="#45815c" points="253.5363,-38.9808 248.0957,-29.4597 249.4926,-36.0399 245.4489,-33.099 245.4489,-33.099 245.4489,-33.099 249.4926,-36.0399 242.8021,-36.7384 253.5363,-38.9808 253.5363,-38.9808"/>
</g>
<!-- CategoryProduct -->
<g id="node5" class="node">
<title>CategoryProduct</title>
<ellipse fill="none" stroke="#000000" cx="350.6877" cy="-18" rx="70.0668" ry="18"/>
<text text-anchor="middle" x="350.6877" y="-13.8" font-family="Times,serif" font-size="14.00" fill="#000000">CategoryProduct</text>
</g>
<!-- Category&#45;&gt;CategoryProduct -->
<g id="edge2" class="edge">
<title>Category&#45;&gt;CategoryProduct</title>
<path fill="none" stroke="#e9e151" d="M333.2089,-64.6102C335.5251,-58.4338 338.0128,-51.7999 340.3642,-45.5295"/>
<ellipse fill="none" stroke="#e9e151" cx="331.7664" cy="-68.4569" rx="4" ry="4"/>
<polygon fill="#e9e151" stroke="#e9e151" points="340.3915,-45.4564 348.1163,-37.6732 342.1472,-40.7748 343.9028,-36.0931 343.9028,-36.0931 343.9028,-36.0931 342.1472,-40.7748 339.6893,-34.513 340.3915,-45.4564 340.3915,-45.4564"/>
</g>
<!-- Order -->
<g id="node6" class="node">
<title>Order</title>
<ellipse fill="none" stroke="#000000" cx="414.6877" cy="-90" rx="30.9619" ry="18"/>
<text text-anchor="middle" x="414.6877" y="-85.8" font-family="Times,serif" font-size="14.00" fill="#000000">Order</text>
</g>
<!-- Ability -->
<g id="node7" class="node">
<title>Ability</title>
<polygon fill="none" stroke="#000000" points="523.3577,-198.5 468.0178,-198.5 468.0178,-162.5 523.3577,-162.5 523.3577,-198.5"/>
<text text-anchor="middle" x="495.6877" y="-176.3" font-family="Times,serif" font-size="14.00" fill="#000000">Ability</text>
</g>
<!-- Billing -->
<g id="node8" class="node">
<title>Billing</title>
<ellipse fill="none" stroke="#000000" cx="414.6877" cy="-180.5" rx="34.8545" ry="18"/>
<text text-anchor="middle" x="414.6877" y="-176.3" font-family="Times,serif" font-size="14.00" fill="#000000">Billing</text>
</g>
<!-- Billing&#45;&gt;Order -->
<g id="edge4" class="edge">
<title>Billing&#45;&gt;Order</title>
<path fill="none" stroke="#bcc0e1" d="M414.6877,-153.9687C414.6877,-142.8402 414.6877,-129.878 414.6877,-118.5429"/>
<ellipse fill="none" stroke="#bcc0e1" cx="414.6878" cy="-158.186" rx="4" ry="4"/>
<polygon fill="#bcc0e1" stroke="#bcc0e1" points="414.6878,-118.2868 419.1877,-108.2867 414.6878,-113.2868 414.6877,-108.2868 414.6877,-108.2868 414.6877,-108.2868 414.6878,-113.2868 410.1877,-108.2868 414.6878,-118.2868 414.6878,-118.2868"/>
</g>
<!-- AdminUser -->
<g id="node9" class="node">
<title>AdminUser</title>
<ellipse fill="none" stroke="#000000" cx="592.6877" cy="-180.5" rx="51.2415" ry="18"/>
<text text-anchor="middle" x="592.6877" y="-176.3" font-family="Times,serif" font-size="14.00" fill="#000000">AdminUser</text>
</g>
<!-- ApplicationRecord -->
<g id="node10" class="node">
<title>ApplicationRecord</title>
<ellipse fill="none" stroke="#000000" cx="739.6877" cy="-180.5" rx="77.2916" ry="18"/>
<text text-anchor="middle" x="739.6877" y="-176.3" font-family="Times,serif" font-size="14.00" fill="#000000">ApplicationRecord</text>
</g>
<!-- User -->
<g id="node11" class="node">
<title>User</title>
<ellipse fill="none" stroke="#000000" cx="252.6877" cy="-180.5" rx="27" ry="18"/>
<text text-anchor="middle" x="252.6877" y="-176.3" font-family="Times,serif" font-size="14.00" fill="#000000">User</text>
</g>
<!-- User&#45;&gt;Shop -->
<g id="edge5" class="edge">
<title>User&#45;&gt;Shop</title>
<path fill="none" stroke="#62b3bf" d="M237.9262,-156.6443C229.7647,-143.4547 219.6539,-127.115 211.4865,-113.9158"/>
<ellipse fill="none" stroke="#62b3bf" cx="240.0498" cy="-160.0762" rx="4" ry="4"/>
<ellipse fill="#62b3bf" stroke="#62b3bf" cx="209.2785" cy="-110.3475" rx="4" ry="4"/>
</g>
<!-- User&#45;&gt;Product -->
<g id="edge7" class="edge">
<title>User&#45;&gt;Product</title>
<path fill="none" stroke="#fe1364" d="M247.8571,-152.4647C242.7352,-122.7396 234.6904,-76.0512 229.5548,-46.2461"/>
<polygon fill="#fe1364" stroke="#fe1364" points="247.8861,-152.634 245.1496,-163.2529 248.7352,-157.5614 249.5843,-162.4888 249.5843,-162.4888 249.5843,-162.4888 248.7352,-157.5614 254.0189,-161.7246 247.8861,-152.634 247.8861,-152.634"/>
<polygon fill="#fe1364" stroke="#fe1364" points="229.5033,-45.9467 232.2398,-35.3277 228.6542,-41.0193 227.8051,-36.0919 227.8051,-36.0919 227.8051,-36.0919 228.6542,-41.0193 223.3705,-36.8561 229.5033,-45.9467 229.5033,-45.9467"/>
</g>
<!-- User&#45;&gt;Order -->
<g id="edge6" class="edge">
<title>User&#45;&gt;Order</title>
<path fill="none" stroke="#ae8cb2" d="M280.7589,-164.8183C309.3304,-148.857 353.5305,-124.165 383.2579,-107.558"/>
<ellipse fill="none" stroke="#ae8cb2" cx="277.0268" cy="-166.9032" rx="4" ry="4"/>
<polygon fill="#ae8cb2" stroke="#ae8cb2" points="383.6328,-107.3486 394.5576,-106.4001 387.9979,-104.9101 392.3629,-102.4716 392.3629,-102.4716 392.3629,-102.4716 387.9979,-104.9101 390.1683,-98.543 383.6328,-107.3486 383.6328,-107.3486"/>
</g>
</g>
</svg>
