<?xml version="1.0" encoding="UTF-8" standalone="no"?>
<!DOCTYPE svg PUBLIC "-//W3C//DTD SVG 1.1//EN"
 "http://www.w3.org/Graphics/SVG/1.1/DTD/svg11.dtd">
<!-- Generated by graphviz version 2.40.1 (20161225.0304)
 -->
<!-- Title: models_diagram Pages: 1 -->
<svg width="1518pt" height="677pt"
 viewBox="0.00 0.00 1518.08 677.00" xmlns="http://www.w3.org/2000/svg" xmlns:xlink="http://www.w3.org/1999/xlink">
<g id="graph0" class="graph" transform="scale(1 1) rotate(0) translate(4 673)">
<title>models_diagram</title>
<polygon fill="transparent" stroke="transparent" points="-4,4 -4,-673 1514.0835,-673 1514.0835,4 -4,4"/>
<!-- _diagram_info -->
<g id="node1" class="node">
<title>_diagram_info</title>
<text text-anchor="start" x="8" y="-570.6" font-family="Times,serif" font-size="13.00" fill="#000000">Models diagram</text>
<text text-anchor="start" x="8" y="-557.6" font-family="Times,serif" font-size="13.00" fill="#000000">Date: Mar 18 2019 &#45; 02:14</text>
<text text-anchor="start" x="8" y="-544.6" font-family="Times,serif" font-size="13.00" fill="#000000">Migration version: 20190315141329</text>
<text text-anchor="start" x="8" y="-531.6" font-family="Times,serif" font-size="13.00" fill="#000000">Generated by RailRoady 1.5.3</text>
<text text-anchor="start" x="8" y="-518.6" font-family="Times,serif" font-size="13.00" fill="#000000">http://railroady.prestonlee.com</text>
</g>
<!-- Shop -->
<g id="node2" class="node">
<title>Shop</title>
<path fill="none" stroke="#000000" d="M120.8254,-228.5C120.8254,-228.5 344.55,-228.5 344.55,-228.5 350.55,-228.5 356.55,-234.5 356.55,-240.5 356.55,-240.5 356.55,-330.5 356.55,-330.5 356.55,-336.5 350.55,-342.5 344.55,-342.5 344.55,-342.5 120.8254,-342.5 120.8254,-342.5 114.8254,-342.5 108.8254,-336.5 108.8254,-330.5 108.8254,-330.5 108.8254,-240.5 108.8254,-240.5 108.8254,-234.5 114.8254,-228.5 120.8254,-228.5"/>
<text text-anchor="middle" x="232.6877" y="-327.3" font-family="Times,serif" font-size="14.00" fill="#000000">Shop</text>
<polyline fill="none" stroke="#000000" points="108.8254,-320.5 356.55,-320.5 "/>
<text text-anchor="start" x="116.8254" y="-305.3" font-family="Times,serif" font-size="14.00" fill="#000000">id :bigint</text>
<text text-anchor="start" x="116.8254" y="-291.3" font-family="Times,serif" font-size="14.00" fill="#000000">name :character varying</text>
<text text-anchor="start" x="116.8254" y="-277.3" font-family="Times,serif" font-size="14.00" fill="#000000">description :text</text>
<text text-anchor="start" x="116.8254" y="-263.3" font-family="Times,serif" font-size="14.00" fill="#000000">user_id :bigint</text>
<text text-anchor="start" x="116.8254" y="-249.3" font-family="Times,serif" font-size="14.00" fill="#000000">created_at :timestamp without time zone</text>
<text text-anchor="start" x="116.8254" y="-235.3" font-family="Times,serif" font-size="14.00" fill="#000000">updated_at :timestamp without time zone</text>
</g>
<!-- Product -->
<g id="node4" class="node">
<title>Product</title>
<path fill="none" stroke="#000000" d="M215.8254,-.5C215.8254,-.5 439.55,-.5 439.55,-.5 445.55,-.5 451.55,-6.5 451.55,-12.5 451.55,-12.5 451.55,-130.5 451.55,-130.5 451.55,-136.5 445.55,-142.5 439.55,-142.5 439.55,-142.5 215.8254,-142.5 215.8254,-142.5 209.8254,-142.5 203.8254,-136.5 203.8254,-130.5 203.8254,-130.5 203.8254,-12.5 203.8254,-12.5 203.8254,-6.5 209.8254,-.5 215.8254,-.5"/>
<text text-anchor="middle" x="327.6877" y="-127.3" font-family="Times,serif" font-size="14.00" fill="#000000">Product</text>
<polyline fill="none" stroke="#000000" points="203.8254,-120.5 451.55,-120.5 "/>
<text text-anchor="start" x="211.8254" y="-105.3" font-family="Times,serif" font-size="14.00" fill="#000000">updated_at :timestamp without time zone</text>
<text text-anchor="start" x="211.8254" y="-91.3" font-family="Times,serif" font-size="14.00" fill="#000000">name :character varying</text>
<text text-anchor="start" x="211.8254" y="-77.3" font-family="Times,serif" font-size="14.00" fill="#000000">price :numeric(8,2)</text>
<text text-anchor="start" x="211.8254" y="-63.3" font-family="Times,serif" font-size="14.00" fill="#000000">stock :integer</text>
<text text-anchor="start" x="211.8254" y="-49.3" font-family="Times,serif" font-size="14.00" fill="#000000">description :text</text>
<text text-anchor="start" x="211.8254" y="-35.3" font-family="Times,serif" font-size="14.00" fill="#000000">shop_id :bigint</text>
<text text-anchor="start" x="211.8254" y="-21.3" font-family="Times,serif" font-size="14.00" fill="#000000">created_at :timestamp without time zone</text>
<text text-anchor="start" x="211.8254" y="-7.3" font-family="Times,serif" font-size="14.00" fill="#000000">id :bigint</text>
</g>
<!-- Shop&#45;&gt;Product -->
<g id="edge1" class="edge">
<title>Shop&#45;&gt;Product</title>
<path fill="none" stroke="#255410" d="M261.3718,-220.8854C271.0153,-199.1622 281.8929,-174.6589 292.0071,-151.8754"/>
<ellipse fill="none" stroke="#255410" cx="259.6442" cy="-224.7771" rx="4" ry="4"/>
<polygon fill="#255410" stroke="#255410" points="292.0814,-151.7077 300.2519,-144.3937 294.1102,-147.1378 296.1389,-142.5679 296.1389,-142.5679 296.1389,-142.5679 294.1102,-147.1378 292.026,-140.742 292.0814,-151.7077 292.0814,-151.7077"/>
</g>
<!-- Category -->
<g id="node3" class="node">
<title>Category</title>
<path fill="none" stroke="#000000" d="M424.8254,-242.5C424.8254,-242.5 648.55,-242.5 648.55,-242.5 654.55,-242.5 660.55,-248.5 660.55,-254.5 660.55,-254.5 660.55,-316.5 660.55,-316.5 660.55,-322.5 654.55,-328.5 648.55,-328.5 648.55,-328.5 424.8254,-328.5 424.8254,-328.5 418.8254,-328.5 412.8254,-322.5 412.8254,-316.5 412.8254,-316.5 412.8254,-254.5 412.8254,-254.5 412.8254,-248.5 418.8254,-242.5 424.8254,-242.5"/>
<text text-anchor="middle" x="536.6877" y="-313.3" font-family="Times,serif" font-size="14.00" fill="#000000">Category</text>
<polyline fill="none" stroke="#000000" points="412.8254,-306.5 660.55,-306.5 "/>
<text text-anchor="start" x="420.8254" y="-291.3" font-family="Times,serif" font-size="14.00" fill="#000000">id :bigint</text>
<text text-anchor="start" x="420.8254" y="-277.3" font-family="Times,serif" font-size="14.00" fill="#000000">name :character varying</text>
<text text-anchor="start" x="420.8254" y="-263.3" font-family="Times,serif" font-size="14.00" fill="#000000">created_at :timestamp without time zone</text>
<text text-anchor="start" x="420.8254" y="-249.3" font-family="Times,serif" font-size="14.00" fill="#000000">updated_at :timestamp without time zone</text>
</g>
<!-- Category&#45;&gt;Product -->
<g id="edge3" class="edge">
<title>Category&#45;&gt;Product</title>
<path fill="none" stroke="#926339" d="M487.5992,-235.2371C462.7745,-209.8185 432.08,-178.3897 404.2414,-149.8851"/>
<polygon fill="#926339" stroke="#926339" points="487.6579,-235.2972 491.4255,-245.5955 491.1514,-238.8742 494.6449,-242.4513 494.6449,-242.4513 494.6449,-242.4513 491.1514,-238.8742 497.8643,-239.3072 487.6579,-235.2972 487.6579,-235.2972"/>
<polygon fill="#926339" stroke="#926339" points="404.2177,-149.8608 400.45,-139.5625 400.7242,-146.2837 397.2307,-142.7066 397.2307,-142.7066 397.2307,-142.7066 400.7242,-146.2837 394.0113,-145.8508 404.2177,-149.8608 404.2177,-149.8608"/>
</g>
<!-- CategoryProduct -->
<g id="node5" class="node">
<title>CategoryProduct</title>
<path fill="none" stroke="#000000" d="M481.8254,-21.5C481.8254,-21.5 705.55,-21.5 705.55,-21.5 711.55,-21.5 717.55,-27.5 717.55,-33.5 717.55,-33.5 717.55,-109.5 717.55,-109.5 717.55,-115.5 711.55,-121.5 705.55,-121.5 705.55,-121.5 481.8254,-121.5 481.8254,-121.5 475.8254,-121.5 469.8254,-115.5 469.8254,-109.5 469.8254,-109.5 469.8254,-33.5 469.8254,-33.5 469.8254,-27.5 475.8254,-21.5 481.8254,-21.5"/>
<text text-anchor="middle" x="593.6877" y="-106.3" font-family="Times,serif" font-size="14.00" fill="#000000">CategoryProduct</text>
<polyline fill="none" stroke="#000000" points="469.8254,-99.5 717.55,-99.5 "/>
<text text-anchor="start" x="477.8254" y="-84.3" font-family="Times,serif" font-size="14.00" fill="#000000">id :bigint</text>
<text text-anchor="start" x="477.8254" y="-70.3" font-family="Times,serif" font-size="14.00" fill="#000000">product_id :bigint</text>
<text text-anchor="start" x="477.8254" y="-56.3" font-family="Times,serif" font-size="14.00" fill="#000000">category_id :bigint</text>
<text text-anchor="start" x="477.8254" y="-42.3" font-family="Times,serif" font-size="14.00" fill="#000000">created_at :timestamp without time zone</text>
<text text-anchor="start" x="477.8254" y="-28.3" font-family="Times,serif" font-size="14.00" fill="#000000">updated_at :timestamp without time zone</text>
</g>
<!-- Category&#45;&gt;CategoryProduct -->
<g id="edge2" class="edge">
<title>Category&#45;&gt;CategoryProduct</title>
<path fill="none" stroke="#056c37" d="M550.2844,-234.453C558.5278,-203.5042 569.0858,-163.8652 577.7246,-131.432"/>
<ellipse fill="none" stroke="#056c37" cx="549.1835" cy="-238.5861" rx="4" ry="4"/>
<polygon fill="#056c37" stroke="#056c37" points="577.7654,-131.2785 584.6876,-122.7737 579.0523,-126.447 580.3392,-121.6154 580.3392,-121.6154 580.3392,-121.6154 579.0523,-126.447 575.9908,-120.4572 577.7654,-131.2785 577.7654,-131.2785"/>
</g>
<!-- Order -->
<g id="node6" class="node">
<title>Order</title>
<path fill="none" stroke="#000000" d="M690.8254,-179.5C690.8254,-179.5 914.55,-179.5 914.55,-179.5 920.55,-179.5 926.55,-185.5 926.55,-191.5 926.55,-191.5 926.55,-379.5 926.55,-379.5 926.55,-385.5 920.55,-391.5 914.55,-391.5 914.55,-391.5 690.8254,-391.5 690.8254,-391.5 684.8254,-391.5 678.8254,-385.5 678.8254,-379.5 678.8254,-379.5 678.8254,-191.5 678.8254,-191.5 678.8254,-185.5 684.8254,-179.5 690.8254,-179.5"/>
<text text-anchor="middle" x="802.6877" y="-376.3" font-family="Times,serif" font-size="14.00" fill="#000000">Order</text>
<polyline fill="none" stroke="#000000" points="678.8254,-369.5 926.55,-369.5 "/>
<text text-anchor="start" x="686.8254" y="-354.3" font-family="Times,serif" font-size="14.00" fill="#000000">type_order :character varying</text>
<text text-anchor="start" x="686.8254" y="-340.3" font-family="Times,serif" font-size="14.00" fill="#000000">user_id :bigint</text>
<text text-anchor="start" x="686.8254" y="-326.3" font-family="Times,serif" font-size="14.00" fill="#000000">product_id :bigint</text>
<text text-anchor="start" x="686.8254" y="-312.3" font-family="Times,serif" font-size="14.00" fill="#000000">shop_id :bigint</text>
<text text-anchor="start" x="686.8254" y="-298.3" font-family="Times,serif" font-size="14.00" fill="#000000">paid :boolean</text>
<text text-anchor="start" x="686.8254" y="-284.3" font-family="Times,serif" font-size="14.00" fill="#000000">dispached :boolean</text>
<text text-anchor="start" x="686.8254" y="-270.3" font-family="Times,serif" font-size="14.00" fill="#000000">completed :boolean</text>
<text text-anchor="start" x="686.8254" y="-256.3" font-family="Times,serif" font-size="14.00" fill="#000000">quantity :integer</text>
<text text-anchor="start" x="686.8254" y="-242.3" font-family="Times,serif" font-size="14.00" fill="#000000">price :numeric(8,2)</text>
<text text-anchor="start" x="686.8254" y="-228.3" font-family="Times,serif" font-size="14.00" fill="#000000">created_at :timestamp without time zone</text>
<text text-anchor="start" x="686.8254" y="-214.3" font-family="Times,serif" font-size="14.00" fill="#000000">updated_at :timestamp without time zone</text>
<text text-anchor="start" x="686.8254" y="-200.3" font-family="Times,serif" font-size="14.00" fill="#000000">billing_id :bigint</text>
<text text-anchor="start" x="686.8254" y="-186.3" font-family="Times,serif" font-size="14.00" fill="#000000">id :bigint</text>
</g>
<!-- Ability -->
<g id="node7" class="node">
<title>Ability</title>
<polygon fill="none" stroke="#000000" points="944.8533,-526.5 944.8533,-570.5 1000.5222,-570.5 1000.5222,-526.5 944.8533,-526.5"/>
<text text-anchor="middle" x="972.6877" y="-555.3" font-family="Times,serif" font-size="14.00" fill="#000000">Ability</text>
<polyline fill="none" stroke="#000000" points="944.8533,-548.5 1000.5222,-548.5 "/>
<text text-anchor="middle" x="972.6877" y="-533.3" font-family="Times,serif" font-size="14.00" fill="#000000"> </text>
</g>
<!-- Billing -->
<g id="node8" class="node">
<title>Billing</title>
<path fill="none" stroke="#000000" d="M690.8254,-470.5C690.8254,-470.5 914.55,-470.5 914.55,-470.5 920.55,-470.5 926.55,-476.5 926.55,-482.5 926.55,-482.5 926.55,-614.5 926.55,-614.5 926.55,-620.5 920.55,-626.5 914.55,-626.5 914.55,-626.5 690.8254,-626.5 690.8254,-626.5 684.8254,-626.5 678.8254,-620.5 678.8254,-614.5 678.8254,-614.5 678.8254,-482.5 678.8254,-482.5 678.8254,-476.5 684.8254,-470.5 690.8254,-470.5"/>
<text text-anchor="middle" x="802.6877" y="-611.3" font-family="Times,serif" font-size="14.00" fill="#000000">Billing</text>
<polyline fill="none" stroke="#000000" points="678.8254,-604.5 926.55,-604.5 "/>
<text text-anchor="start" x="686.8254" y="-589.3" font-family="Times,serif" font-size="14.00" fill="#000000">address :character varying</text>
<text text-anchor="start" x="686.8254" y="-575.3" font-family="Times,serif" font-size="14.00" fill="#000000">code :character varying</text>
<text text-anchor="start" x="686.8254" y="-561.3" font-family="Times,serif" font-size="14.00" fill="#000000">payment_method :character varying</text>
<text text-anchor="start" x="686.8254" y="-547.3" font-family="Times,serif" font-size="14.00" fill="#000000">currency :character varying</text>
<text text-anchor="start" x="686.8254" y="-533.3" font-family="Times,serif" font-size="14.00" fill="#000000">amount :numeric(8,2)</text>
<text text-anchor="start" x="686.8254" y="-519.3" font-family="Times,serif" font-size="14.00" fill="#000000">user_id :bigint</text>
<text text-anchor="start" x="686.8254" y="-505.3" font-family="Times,serif" font-size="14.00" fill="#000000">created_at :timestamp without time zone</text>
<text text-anchor="start" x="686.8254" y="-491.3" font-family="Times,serif" font-size="14.00" fill="#000000">updated_at :timestamp without time zone</text>
<text text-anchor="start" x="686.8254" y="-477.3" font-family="Times,serif" font-size="14.00" fill="#000000">id :bigint</text>
</g>
<!-- Billing&#45;&gt;Order -->
<g id="edge4" class="edge">
<title>Billing&#45;&gt;Order</title>
<path fill="none" stroke="#b61e8f" d="M802.6877,-462.1025C802.6877,-442.8358 802.6877,-422.0994 802.6877,-401.8487"/>
<ellipse fill="none" stroke="#b61e8f" cx="802.6878" cy="-466.3034" rx="4" ry="4"/>
<polygon fill="#b61e8f" stroke="#b61e8f" points="802.6878,-401.6356 807.1877,-391.6356 802.6878,-396.6356 802.6877,-391.6356 802.6877,-391.6356 802.6877,-391.6356 802.6878,-396.6356 798.1877,-391.6357 802.6878,-401.6356 802.6878,-401.6356"/>
</g>
<!-- AdminUser -->
<g id="node9" class="node">
<title>AdminUser</title>
<path fill="none" stroke="#000000" d="M1030.053,-477.5C1030.053,-477.5 1325.3225,-477.5 1325.3225,-477.5 1331.3225,-477.5 1337.3225,-483.5 1337.3225,-489.5 1337.3225,-489.5 1337.3225,-607.5 1337.3225,-607.5 1337.3225,-613.5 1331.3225,-619.5 1325.3225,-619.5 1325.3225,-619.5 1030.053,-619.5 1030.053,-619.5 1024.053,-619.5 1018.053,-613.5 1018.053,-607.5 1018.053,-607.5 1018.053,-489.5 1018.053,-489.5 1018.053,-483.5 1024.053,-477.5 1030.053,-477.5"/>
<text text-anchor="middle" x="1177.6877" y="-604.3" font-family="Times,serif" font-size="14.00" fill="#000000">AdminUser</text>
<polyline fill="none" stroke="#000000" points="1018.053,-597.5 1337.3225,-597.5 "/>
<text text-anchor="start" x="1026.053" y="-582.3" font-family="Times,serif" font-size="14.00" fill="#000000">updated_at :timestamp without time zone</text>
<text text-anchor="start" x="1026.053" y="-568.3" font-family="Times,serif" font-size="14.00" fill="#000000">email :character varying</text>
<text text-anchor="start" x="1026.053" y="-554.3" font-family="Times,serif" font-size="14.00" fill="#000000">encrypted_password :character varying</text>
<text text-anchor="start" x="1026.053" y="-540.3" font-family="Times,serif" font-size="14.00" fill="#000000">reset_password_token :character varying</text>
<text text-anchor="start" x="1026.053" y="-526.3" font-family="Times,serif" font-size="14.00" fill="#000000">reset_password_sent_at :timestamp without time zone</text>
<text text-anchor="start" x="1026.053" y="-512.3" font-family="Times,serif" font-size="14.00" fill="#000000">remember_created_at :timestamp without time zone</text>
<text text-anchor="start" x="1026.053" y="-498.3" font-family="Times,serif" font-size="14.00" fill="#000000">created_at :timestamp without time zone</text>
<text text-anchor="start" x="1026.053" y="-484.3" font-family="Times,serif" font-size="14.00" fill="#000000">id :bigint</text>
</g>
<!-- ApplicationRecord -->
<g id="node10" class="node">
<title>ApplicationRecord</title>
<ellipse fill="none" stroke="#000000" cx="1432.6877" cy="-548.5" rx="77.2916" ry="18"/>
<text text-anchor="middle" x="1432.6877" y="-544.3" font-family="Times,serif" font-size="14.00" fill="#000000">ApplicationRecord</text>
</g>
<!-- User -->
<g id="node11" class="node">
<title>User</title>
<path fill="none" stroke="#000000" d="M237.053,-428.5C237.053,-428.5 532.3225,-428.5 532.3225,-428.5 538.3225,-428.5 544.3225,-434.5 544.3225,-440.5 544.3225,-440.5 544.3225,-656.5 544.3225,-656.5 544.3225,-662.5 538.3225,-668.5 532.3225,-668.5 532.3225,-668.5 237.053,-668.5 237.053,-668.5 231.053,-668.5 225.053,-662.5 225.053,-656.5 225.053,-656.5 225.053,-440.5 225.053,-440.5 225.053,-434.5 231.053,-428.5 237.053,-428.5"/>
<text text-anchor="middle" x="384.6877" y="-653.3" font-family="Times,serif" font-size="14.00" fill="#000000">User</text>
<polyline fill="none" stroke="#000000" points="225.053,-646.5 544.3225,-646.5 "/>
<text text-anchor="start" x="233.053" y="-631.3" font-family="Times,serif" font-size="14.00" fill="#000000">uid :character varying</text>
<text text-anchor="start" x="233.053" y="-617.3" font-family="Times,serif" font-size="14.00" fill="#000000">email :character varying</text>
<text text-anchor="start" x="233.053" y="-603.3" font-family="Times,serif" font-size="14.00" fill="#000000">encrypted_password :character varying</text>
<text text-anchor="start" x="233.053" y="-589.3" font-family="Times,serif" font-size="14.00" fill="#000000">reset_password_token :character varying</text>
<text text-anchor="start" x="233.053" y="-575.3" font-family="Times,serif" font-size="14.00" fill="#000000">reset_password_sent_at :timestamp without time zone</text>
<text text-anchor="start" x="233.053" y="-561.3" font-family="Times,serif" font-size="14.00" fill="#000000">remember_created_at :timestamp without time zone</text>
<text text-anchor="start" x="233.053" y="-547.3" font-family="Times,serif" font-size="14.00" fill="#000000">name :character varying</text>
<text text-anchor="start" x="233.053" y="-533.3" font-family="Times,serif" font-size="14.00" fill="#000000">role :integer</text>
<text text-anchor="start" x="233.053" y="-519.3" font-family="Times,serif" font-size="14.00" fill="#000000">created_at :timestamp without time zone</text>
<text text-anchor="start" x="233.053" y="-505.3" font-family="Times,serif" font-size="14.00" fill="#000000">updated_at :timestamp without time zone</text>
<text text-anchor="start" x="233.053" y="-491.3" font-family="Times,serif" font-size="14.00" fill="#000000">latitude :double precision</text>
<text text-anchor="start" x="233.053" y="-477.3" font-family="Times,serif" font-size="14.00" fill="#000000">longitude :double precision</text>
<text text-anchor="start" x="233.053" y="-463.3" font-family="Times,serif" font-size="14.00" fill="#000000">address :character varying</text>
<text text-anchor="start" x="233.053" y="-449.3" font-family="Times,serif" font-size="14.00" fill="#000000">provider :character varying</text>
<text text-anchor="start" x="233.053" y="-435.3" font-family="Times,serif" font-size="14.00" fill="#000000">id :bigint</text>
</g>
<!-- User&#45;&gt;Shop -->
<g id="edge5" class="edge">
<title>User&#45;&gt;Shop</title>
<path fill="none" stroke="#678777" d="M311.1008,-421.1751C296.8174,-396.4613 282.4204,-371.5505 269.9303,-349.9393"/>
<ellipse fill="none" stroke="#678777" cx="313.1363" cy="-424.6972" rx="4" ry="4"/>
<ellipse fill="#678777" stroke="#678777" cx="267.7721" cy="-346.2051" rx="4" ry="4"/>
</g>
<!-- User&#45;&gt;Product -->
<g id="edge7" class="edge">
<title>User&#45;&gt;Product</title>
<path fill="none" stroke="#6e6691" d="M387.0974,-418.0695C386.1383,-346.8156 381.2142,-257.373 365.6877,-179 363.9504,-170.2303 361.6433,-161.209 359.0216,-152.2978"/>
<polygon fill="#6e6691" stroke="#6e6691" points="387.1015,-418.4476 382.7112,-428.4962 387.1562,-423.4473 387.211,-428.447 387.211,-428.447 387.211,-428.447 387.1562,-423.4473 391.7107,-428.3977 387.1015,-418.4476 387.1015,-418.4476"/>
<polygon fill="#6e6691" stroke="#6e6691" points="359.0059,-152.2465 360.3664,-141.3654 357.5356,-147.4676 356.0653,-142.6886 356.0653,-142.6886 356.0653,-142.6886 357.5356,-147.4676 351.7643,-144.0119 359.0059,-152.2465 359.0059,-152.2465"/>
</g>
<!-- User&#45;&gt;Order -->
<g id="edge6" class="edge">
<title>User&#45;&gt;Order</title>
<path fill="none" stroke="#8953f5" d="M551.7114,-463.0886C591.1801,-441.1925 632.5634,-416.7861 669.6877,-392 669.8723,-391.8768 670.0568,-391.7534 670.2415,-391.6299"/>
<ellipse fill="none" stroke="#8953f5" cx="547.8666" cy="-465.2129" rx="4" ry="4"/>
<polygon fill="#8953f5" stroke="#8953f5" points="670.3179,-391.5778 681.1161,-389.6674 674.4503,-388.763 678.5828,-385.9482 678.5828,-385.9482 678.5828,-385.9482 674.4503,-388.763 676.0494,-382.229 670.3179,-391.5778 670.3179,-391.5778"/>
</g>
</g>
</svg>
